<svg width="30" height="31" viewBox="0 0 30 31" fill="none" xmlns="http://www.w3.org/2000/svg">
<rect width="30" height="31" rx="15" fill="white"/>
<path d="M24.3761 15.7367C24.3761 15.0694 24.3136 14.3805 24.2094 13.7346H15.1885V17.5451H20.3552C20.1469 18.7722 19.4594 19.8486 18.4385 20.5375L21.5219 23.0132C23.3344 21.2694 24.3761 18.7291 24.3761 15.7367Z" fill="#4280EF"/>
<path d="M15.1882 25.3811C17.7716 25.3811 19.9383 24.4985 21.5216 22.9915L18.4383 20.5373C17.5841 21.1401 16.4799 21.4846 15.1882 21.4846C12.6882 21.4846 10.584 19.7408 9.81318 17.4158L6.64648 19.9345C8.2715 23.2714 11.5632 25.3811 15.1882 25.3811Z" fill="#34A353"/>
<path d="M9.8132 17.3944C9.41736 16.1673 9.41736 14.8326 9.8132 13.6055L6.6465 11.0652C5.29231 13.8638 5.29231 17.1576 6.6465 19.9347L9.8132 17.3944Z" fill="#F6B704"/>
<path d="M15.1882 9.53664C16.5424 9.51511 17.8758 10.0533 18.855 11.0221L21.5841 8.18037C19.855 6.50119 17.5633 5.59701 15.1882 5.61854C11.5632 5.61854 8.2715 7.72828 6.64648 11.0651L9.81318 13.6054C10.584 11.2589 12.6882 9.53664 15.1882 9.53664Z" fill="#E54335"/>
</svg>
