<svg width="33" height="33" viewBox="0 0 33 33" fill="none" xmlns="http://www.w3.org/2000/svg">
<path d="M16.2509 0C16.877 0 17.3846 0.50759 17.3846 1.13372V2.64535C17.3846 3.27148 16.877 3.77907 16.2509 3.77907C15.6248 3.77907 15.1172 3.27148 15.1172 2.64535V1.13372C15.1172 0.50759 15.6248 0 16.2509 0Z" fill="#4DA8DA"/>
<path d="M16.2505 7.55829C11.4501 7.55829 7.55859 11.4498 7.55859 16.2501C7.55859 21.0505 11.4501 24.942 16.2505 24.942C21.0508 24.942 24.9423 21.0505 24.9423 16.2501C24.9423 11.4498 21.0508 7.55829 16.2505 7.55829Z" fill="#4DA8DA"/>
<path d="M6.36215 4.75967C5.91939 4.31693 5.20157 4.31693 4.75882 4.75967C4.31607 5.20242 4.31607 5.92025 4.75882 6.36301L5.8277 7.43188C6.27045 7.87463 6.98828 7.87463 7.43102 7.43188C7.87378 6.98914 7.87378 6.2713 7.43102 5.82855L6.36215 4.75967Z" fill="#4DA8DA"/>
<path d="M32.4998 16.2501C32.4998 16.8762 31.9922 17.3838 31.3661 17.3838H29.8544C29.2283 17.3838 28.7207 16.8762 28.7207 16.2501C28.7207 15.624 29.2283 15.1164 29.8544 15.1164H31.3661C31.9922 15.1164 32.4998 15.624 32.4998 16.2501Z" fill="#4DA8DA"/>
<path d="M27.7407 6.363C28.1834 5.92025 28.1834 5.20242 27.7407 4.75968C27.2979 4.31692 26.58 4.31692 26.1373 4.75968L25.0684 5.82855C24.6256 6.27131 24.6256 6.98913 25.0684 7.43187C25.5112 7.87463 26.229 7.87463 26.6718 7.43187L27.7407 6.363Z" fill="#4DA8DA"/>
<path d="M16.2509 28.7211C16.877 28.7211 17.3846 29.2287 17.3846 29.8549V31.3665C17.3846 31.9926 16.877 32.5002 16.2509 32.5002C15.6248 32.5002 15.1172 31.9926 15.1172 31.3665V29.8549C15.1172 29.2287 15.6248 28.7211 16.2509 28.7211Z" fill="#4DA8DA"/>
<path d="M26.6716 25.0685C26.2289 24.6258 25.5112 24.6258 25.0684 25.0685C24.6256 25.5113 24.6256 26.2291 25.0684 26.6719L26.1373 27.7408C26.58 28.1835 27.2977 28.1835 27.7405 27.7408C28.1833 27.298 28.1833 26.5801 27.7405 26.1374L26.6716 25.0685Z" fill="#4DA8DA"/>
<path d="M3.77907 16.2501C3.77907 16.8762 3.27148 17.3838 2.64535 17.3838H1.13372C0.50759 17.3838 0 16.8762 0 16.2501C0 15.624 0.50759 15.1164 1.13372 15.1164H2.64535C3.27148 15.1164 3.77907 15.624 3.77907 16.2501Z" fill="#4DA8DA"/>
<path d="M7.43102 26.6719C7.87376 26.2291 7.87376 25.5113 7.43102 25.0685C6.98827 24.6258 6.27044 24.6258 5.8277 25.0685L4.75881 26.1374C4.31607 26.5801 4.31607 27.298 4.75881 27.7408C5.20155 28.1835 5.9194 28.1835 6.36214 27.7408L7.43102 26.6719Z" fill="#4DA8DA"/>
</svg>
