<svg width="20" height="20" viewBox="0 0 20 20" fill="none" xmlns="http://www.w3.org/2000/svg">
<path fill-rule="evenodd" clip-rule="evenodd" d="M9.96942 0.240234C4.46483 0.240234 0 4.70507 0 10.2097C0 14.6133 2.87462 18.3442 6.78899 19.6898C7.27829 19.7509 7.46177 19.4451 7.46177 19.2005C7.46177 18.9558 7.46177 18.3442 7.46177 17.4879C4.70948 18.0996 4.09786 16.1424 4.09786 16.1424C3.66972 14.9803 2.99694 14.6745 2.99694 14.6745C2.07951 14.0629 3.0581 14.0629 3.0581 14.0629C4.0367 14.124 4.58716 15.1026 4.58716 15.1026C5.50459 16.6317 6.91131 16.2035 7.46177 15.9589C7.52294 15.2861 7.82875 14.858 8.07339 14.6133C5.87156 14.3687 3.5474 13.5124 3.5474 9.65919C3.5474 8.55828 3.91437 7.70201 4.58716 6.96806C4.52599 6.78458 4.15902 5.74482 4.70948 4.39926C4.70948 4.39926 5.56575 4.15461 7.46177 5.43901C8.25688 5.19436 9.11315 5.1332 9.96942 5.1332C10.8257 5.1332 11.682 5.25552 12.4771 5.43901C14.3731 4.15461 15.2294 4.39926 15.2294 4.39926C15.7798 5.74482 15.4128 6.78458 15.3517 7.02923C15.9633 7.70201 16.3914 8.61944 16.3914 9.72036C16.3914 13.5736 14.0673 14.3687 11.8654 14.6133C12.2324 14.9191 12.5382 15.5308 12.5382 16.4482C12.5382 17.7938 12.5382 18.8335 12.5382 19.2005C12.5382 19.4451 12.7217 19.7509 13.211 19.6898C17.1865 18.3442 20 14.6133 20 10.2097C19.9388 4.70507 15.474 0.240234 9.96942 0.240234Z" fill="#4DA8DA"/>
</svg>
