<svg width="27" height="27" viewBox="0 0 27 27" fill="none" xmlns="http://www.w3.org/2000/svg">
<path d="M13.5294 0.000183105C6.0573 0.000183105 0 6.04434 0 13.5002C0 20.956 6.0573 27.0002 13.5294 27.0002C20.5608 27.0002 26.3386 21.6483 26.9963 14.8036C27.027 14.4852 26.8629 14.1795 26.5804 14.0281C26.2977 13.8769 25.9517 13.9096 25.7028 14.1113C24.3344 15.2193 22.592 15.8825 20.692 15.8825C16.2967 15.8825 12.7335 12.3271 12.7335 7.94136C12.7335 5.33649 13.9897 3.02455 15.9338 1.57519C16.1908 1.38355 16.3073 1.05661 16.2293 0.746034C16.1514 0.435455 15.8941 0.201984 15.5769 0.153893C14.9087 0.0526267 14.2249 0.000183105 13.5294 0.000183105Z" fill="#EEFBFB"/>
</svg>
